<svg width="112" height="24" viewBox="0 0 112 24" fill="none" xmlns="http://www.w3.org/2000/svg">
<path d="M31.269 3.77C31.4337 3.77 31.5593 3.822 31.646 3.926C31.7413 4.02133 31.789 4.15133 31.789 4.316V12.545C31.789 12.701 31.7457 12.8267 31.659 12.922C31.5723 13.0173 31.451 13.065 31.295 13.065C31.139 13.065 31.022 13.0173 30.944 12.922C30.866 12.8267 30.827 12.701 30.827 12.545V5.902L28.006 11.31C27.8847 11.5613 27.707 11.687 27.473 11.687C27.2477 11.687 27.07 11.5613 26.94 11.31L24.106 5.967V12.545C24.106 12.701 24.0627 12.8267 23.976 12.922C23.898 13.0173 23.781 13.065 23.625 13.065C23.469 13.065 23.3477 13.0173 23.261 12.922C23.1743 12.8267 23.131 12.701 23.131 12.545V4.316C23.131 4.15133 23.1787 4.02133 23.274 3.926C23.3693 3.822 23.4993 3.77 23.664 3.77C23.8807 3.77 24.054 3.89567 24.184 4.147L27.486 10.478L30.749 4.147C30.8183 4.00833 30.892 3.913 30.97 3.861C31.0567 3.80033 31.1563 3.77 31.269 3.77ZM36.5317 13.091C35.9337 13.091 35.405 12.9567 34.9457 12.688C34.495 12.4193 34.144 12.038 33.8927 11.544C33.65 11.0413 33.5287 10.4607 33.5287 9.802C33.5287 9.14333 33.65 8.567 33.8927 8.073C34.144 7.57033 34.495 7.18467 34.9457 6.916C35.405 6.64733 35.9337 6.513 36.5317 6.513C37.1297 6.513 37.6583 6.64733 38.1177 6.916C38.577 7.18467 38.928 7.57033 39.1707 8.073C39.422 8.567 39.5477 9.14333 39.5477 9.802C39.5477 10.4607 39.422 11.0413 39.1707 11.544C38.928 12.038 38.577 12.4193 38.1177 12.688C37.6583 12.9567 37.1297 13.091 36.5317 13.091ZM36.5317 12.22C37.1557 12.22 37.6323 12.0163 37.9617 11.609C38.2997 11.193 38.4687 10.5907 38.4687 9.802C38.4687 9.03067 38.2997 8.437 37.9617 8.021C37.6237 7.59633 37.147 7.384 36.5317 7.384C35.9163 7.384 35.4397 7.59633 35.1017 8.021C34.7637 8.437 34.5947 9.03067 34.5947 9.802C34.5947 10.582 34.7593 11.18 35.0887 11.596C35.4267 12.012 35.9077 12.22 36.5317 12.22ZM44.3016 6.513C44.8563 6.513 45.3459 6.64733 45.7706 6.916C46.1953 7.18467 46.5246 7.566 46.7586 8.06C46.9926 8.554 47.1096 9.126 47.1096 9.776C47.1096 10.4347 46.9926 11.0153 46.7586 11.518C46.5246 12.012 46.1953 12.3977 45.7706 12.675C45.3459 12.9523 44.8563 13.091 44.3016 13.091C43.8076 13.091 43.3743 12.9827 43.0016 12.766C42.6376 12.5493 42.3603 12.2417 42.1696 11.843V12.545C42.1696 12.701 42.1219 12.8267 42.0266 12.922C41.9399 13.0173 41.8143 13.065 41.6496 13.065C41.4849 13.065 41.3549 13.0173 41.2596 12.922C41.1643 12.8267 41.1166 12.701 41.1166 12.545V4.277C41.1166 4.12967 41.1643 4.00833 41.2596 3.913C41.3549 3.81767 41.4849 3.77 41.6496 3.77C41.8143 3.77 41.9399 3.81767 42.0266 3.913C42.1219 3.99967 42.1696 4.121 42.1696 4.277V7.761C42.3603 7.36233 42.6376 7.05467 43.0016 6.838C43.3743 6.62133 43.8076 6.513 44.3016 6.513ZM44.0936 12.22C44.7089 12.22 45.1856 12.0077 45.5236 11.583C45.8616 11.1497 46.0306 10.5473 46.0306 9.776C46.0306 9.022 45.8616 8.437 45.5236 8.021C45.1856 7.605 44.7089 7.397 44.0936 7.397C43.4783 7.397 43.0016 7.605 42.6636 8.021C42.3343 8.437 42.1696 9.03067 42.1696 9.802C42.1696 10.5733 42.3343 11.1713 42.6636 11.596C43.0016 12.012 43.4783 12.22 44.0936 12.22ZM49.216 13.065C49.06 13.065 48.93 13.0217 48.826 12.935C48.7307 12.8397 48.683 12.7097 48.683 12.545V7.059C48.683 6.89433 48.7307 6.76867 48.826 6.682C48.93 6.58667 49.06 6.539 49.216 6.539C49.372 6.539 49.4977 6.58667 49.593 6.682C49.6883 6.76867 49.736 6.89433 49.736 7.059V12.545C49.736 12.7183 49.6883 12.8483 49.593 12.935C49.4977 13.0217 49.372 13.065 49.216 13.065ZM49.216 5.174C49.008 5.174 48.839 5.11333 48.709 4.992C48.579 4.87067 48.514 4.71033 48.514 4.511C48.514 4.32033 48.579 4.16433 48.709 4.043C48.839 3.92167 49.008 3.861 49.216 3.861C49.424 3.861 49.593 3.92167 49.723 4.043C49.853 4.16433 49.918 4.32033 49.918 4.511C49.918 4.71033 49.853 4.87067 49.723 4.992C49.593 5.11333 49.424 5.174 49.216 5.174ZM52.2375 13.065C52.0815 13.065 51.9515 13.0217 51.8475 12.935C51.7522 12.8397 51.7045 12.7097 51.7045 12.545V4.29C51.7045 4.12533 51.7522 3.99967 51.8475 3.913C51.9515 3.81767 52.0815 3.77 52.2375 3.77C52.3848 3.77 52.5062 3.81767 52.6015 3.913C52.7055 3.99967 52.7575 4.12533 52.7575 4.29V12.545C52.7575 12.7097 52.7055 12.8397 52.6015 12.935C52.5062 13.0217 52.3848 13.065 52.2375 13.065ZM59.627 11.531C59.7223 11.531 59.8046 11.57 59.874 11.648C59.9433 11.726 59.978 11.8257 59.978 11.947C59.978 12.1637 59.8263 12.363 59.523 12.545C59.211 12.727 58.8816 12.8657 58.535 12.961C58.1883 13.0477 57.8503 13.091 57.521 13.091C56.5416 13.091 55.766 12.8007 55.194 12.22C54.6306 11.6393 54.349 10.8377 54.349 9.815C54.349 9.165 54.4746 8.593 54.726 8.099C54.9773 7.59633 55.3283 7.20633 55.779 6.929C56.2383 6.65167 56.7583 6.513 57.339 6.513C58.1623 6.513 58.8166 6.78167 59.302 7.319C59.7873 7.85633 60.03 8.58433 60.03 9.503C60.03 9.67633 59.9953 9.802 59.926 9.88C59.8566 9.958 59.744 9.997 59.588 9.997H55.402C55.48 11.4877 56.1863 12.233 57.521 12.233C57.859 12.233 58.1493 12.1897 58.392 12.103C58.6346 12.0077 58.8946 11.882 59.172 11.726C59.3973 11.596 59.549 11.531 59.627 11.531ZM57.352 7.332C56.7973 7.332 56.351 7.50533 56.013 7.852C55.6836 8.19867 55.4886 8.68833 55.428 9.321H59.107C59.0896 8.67967 58.9293 8.19 58.626 7.852C58.3226 7.50533 57.898 7.332 57.352 7.332ZM70.289 8.294C70.8177 8.43267 71.225 8.69267 71.511 9.074C71.8057 9.45533 71.953 9.932 71.953 10.504C71.953 11.31 71.6887 11.9297 71.16 12.363C70.6313 12.7877 69.8817 13 68.911 13H65.635C65.4703 13 65.336 12.9523 65.232 12.857C65.1367 12.7617 65.089 12.636 65.089 12.48V4.355C65.089 4.199 65.1367 4.07333 65.232 3.978C65.336 3.88267 65.4703 3.835 65.635 3.835H68.768C69.7127 3.835 70.445 4.043 70.965 4.459C71.485 4.875 71.745 5.46433 71.745 6.227C71.745 6.721 71.615 7.14567 71.355 7.501C71.1037 7.85633 70.7483 8.12067 70.289 8.294ZM66.142 7.904H68.612C69.2967 7.904 69.8123 7.76533 70.159 7.488C70.5143 7.21067 70.692 6.80767 70.692 6.279C70.692 5.239 69.9987 4.719 68.612 4.719H66.142V7.904ZM68.807 12.116C69.5263 12.116 70.055 11.986 70.393 11.726C70.7397 11.4573 70.913 11.0413 70.913 10.478C70.913 9.35133 70.211 8.788 68.807 8.788H66.142V12.116H68.807ZM76.2798 6.513C77.8658 6.513 78.6588 7.345 78.6588 9.009V12.545C78.6588 12.701 78.6111 12.8267 78.5158 12.922C78.4291 13.0173 78.3078 13.065 78.1518 13.065C77.9958 13.065 77.8701 13.0173 77.7748 12.922C77.6794 12.8267 77.6318 12.701 77.6318 12.545V11.921C77.4671 12.2937 77.2158 12.584 76.8778 12.792C76.5398 12.9913 76.1498 13.091 75.7078 13.091C75.3004 13.091 74.9234 13.0087 74.5768 12.844C74.2388 12.6793 73.9701 12.4497 73.7708 12.155C73.5714 11.8603 73.4718 11.5353 73.4718 11.18C73.4718 10.7033 73.5931 10.335 73.8358 10.075C74.0784 9.80633 74.4771 9.61567 75.0318 9.503C75.5864 9.38167 76.3578 9.321 77.3458 9.321H77.6318V8.892C77.6318 8.372 77.5234 7.99067 77.3068 7.748C77.0988 7.50533 76.7564 7.384 76.2798 7.384C75.6904 7.384 75.0924 7.54433 74.4858 7.865C74.2518 8.01233 74.0871 8.086 73.9918 8.086C73.8878 8.086 73.8011 8.047 73.7318 7.969C73.6624 7.891 73.6278 7.79133 73.6278 7.67C73.6278 7.54867 73.6624 7.44467 73.7318 7.358C73.8098 7.26267 73.9311 7.16733 74.0958 7.072C74.3991 6.89867 74.7414 6.76433 75.1228 6.669C75.5128 6.565 75.8984 6.513 76.2798 6.513ZM75.8508 12.259C76.3708 12.259 76.7954 12.0857 77.1248 11.739C77.4628 11.3837 77.6318 10.9287 77.6318 10.374V9.997H77.3978C76.6351 9.997 76.0544 10.0317 75.6558 10.101C75.2571 10.1617 74.9711 10.27 74.7978 10.426C74.6331 10.5733 74.5508 10.7943 74.5508 11.089C74.5508 11.427 74.6721 11.7087 74.9148 11.934C75.1661 12.1507 75.4781 12.259 75.8508 12.259ZM83.7713 6.513C85.288 6.513 86.0463 7.34933 86.0463 9.022V12.545C86.0463 12.7097 85.9987 12.8397 85.9033 12.935C85.8167 13.0217 85.691 13.065 85.5263 13.065C85.3617 13.065 85.2317 13.0217 85.1363 12.935C85.041 12.8397 84.9933 12.7097 84.9933 12.545V9.087C84.9933 8.49767 84.8763 8.06867 84.6423 7.8C84.417 7.53133 84.053 7.397 83.5503 7.397C82.9697 7.397 82.506 7.57467 82.1593 7.93C81.8127 8.28533 81.6393 8.76633 81.6393 9.373V12.545C81.6393 12.7097 81.5917 12.8397 81.4963 12.935C81.4097 13.0217 81.284 13.065 81.1193 13.065C80.9547 13.065 80.8247 13.0217 80.7293 12.935C80.634 12.8397 80.5863 12.7097 80.5863 12.545V7.059C80.5863 6.903 80.634 6.77733 80.7293 6.682C80.8247 6.58667 80.9547 6.539 81.1193 6.539C81.2753 6.539 81.3967 6.58667 81.4833 6.682C81.5787 6.77733 81.6263 6.89867 81.6263 7.046V7.709C81.8343 7.319 82.1247 7.02433 82.4973 6.825C82.87 6.617 83.2947 6.513 83.7713 6.513ZM93.032 12.168C93.1707 12.298 93.24 12.4367 93.24 12.584C93.24 12.714 93.1923 12.8267 93.097 12.922C93.0103 13.0173 92.902 13.065 92.772 13.065C92.6593 13.065 92.5423 13.013 92.421 12.909L89.028 9.984V12.545C89.028 12.7097 88.976 12.8397 88.872 12.935C88.7767 13.0217 88.6553 13.065 88.508 13.065C88.352 13.065 88.222 13.0217 88.118 12.935C88.0227 12.8397 87.975 12.7097 87.975 12.545V4.29C87.975 4.12533 88.0227 3.99967 88.118 3.913C88.222 3.81767 88.352 3.77 88.508 3.77C88.6553 3.77 88.7767 3.81767 88.872 3.913C88.976 3.99967 89.028 4.12533 89.028 4.29V9.568L92.135 6.721C92.239 6.617 92.356 6.565 92.486 6.565C92.616 6.565 92.7287 6.61267 92.824 6.708C92.9193 6.80333 92.967 6.916 92.967 7.046C92.967 7.19333 92.9063 7.32333 92.785 7.436L90.224 9.724L93.032 12.168ZM95.008 13.065C94.852 13.065 94.722 13.0217 94.618 12.935C94.5227 12.8397 94.475 12.7097 94.475 12.545V7.059C94.475 6.89433 94.5227 6.76867 94.618 6.682C94.722 6.58667 94.852 6.539 95.008 6.539C95.164 6.539 95.2897 6.58667 95.385 6.682C95.4803 6.76867 95.528 6.89433 95.528 7.059V12.545C95.528 12.7183 95.4803 12.8483 95.385 12.935C95.2897 13.0217 95.164 13.065 95.008 13.065ZM95.008 5.174C94.8 5.174 94.631 5.11333 94.501 4.992C94.371 4.87067 94.306 4.71033 94.306 4.511C94.306 4.32033 94.371 4.16433 94.501 4.043C94.631 3.92167 94.8 3.861 95.008 3.861C95.216 3.861 95.385 3.92167 95.515 4.043C95.645 4.16433 95.71 4.32033 95.71 4.511C95.71 4.71033 95.645 4.87067 95.515 4.992C95.385 5.11333 95.216 5.174 95.008 5.174ZM100.681 6.513C102.198 6.513 102.956 7.34933 102.956 9.022V12.545C102.956 12.7097 102.909 12.8397 102.813 12.935C102.727 13.0217 102.601 13.065 102.436 13.065C102.272 13.065 102.142 13.0217 102.046 12.935C101.951 12.8397 101.903 12.7097 101.903 12.545V9.087C101.903 8.49767 101.786 8.06867 101.552 7.8C101.327 7.53133 100.963 7.397 100.46 7.397C99.8798 7.397 99.4162 7.57467 99.0695 7.93C98.7228 8.28533 98.5495 8.76633 98.5495 9.373V12.545C98.5495 12.7097 98.5018 12.8397 98.4065 12.935C98.3198 13.0217 98.1942 13.065 98.0295 13.065C97.8648 13.065 97.7348 13.0217 97.6395 12.935C97.5442 12.8397 97.4965 12.7097 97.4965 12.545V7.059C97.4965 6.903 97.5442 6.77733 97.6395 6.682C97.7348 6.58667 97.8648 6.539 98.0295 6.539C98.1855 6.539 98.3068 6.58667 98.3935 6.682C98.4888 6.77733 98.5365 6.89867 98.5365 7.046V7.709C98.7445 7.319 99.0348 7.02433 99.4075 6.825C99.7802 6.617 100.205 6.513 100.681 6.513ZM110.02 6.539C110.185 6.539 110.315 6.58667 110.41 6.682C110.505 6.77733 110.553 6.903 110.553 7.059V12.571C110.553 13.5157 110.31 14.2263 109.825 14.703C109.34 15.1883 108.62 15.431 107.667 15.431C106.74 15.431 105.968 15.249 105.353 14.885C105.041 14.7117 104.885 14.5123 104.885 14.287C104.885 14.1657 104.915 14.066 104.976 13.988C105.045 13.91 105.132 13.871 105.236 13.871C105.323 13.871 105.479 13.9317 105.704 14.053C106.007 14.209 106.306 14.3347 106.601 14.43C106.896 14.5253 107.247 14.573 107.654 14.573C108.269 14.573 108.733 14.4083 109.045 14.079C109.357 13.7583 109.513 13.286 109.513 12.662V11.544C109.331 11.9513 109.049 12.2633 108.668 12.48C108.295 12.6967 107.853 12.805 107.342 12.805C106.787 12.805 106.293 12.675 105.86 12.415C105.435 12.155 105.102 11.7867 104.859 11.31C104.625 10.8333 104.508 10.283 104.508 9.659C104.508 9.035 104.625 8.48467 104.859 8.008C105.102 7.53133 105.435 7.163 105.86 6.903C106.293 6.643 106.787 6.513 107.342 6.513C107.845 6.513 108.282 6.62133 108.655 6.838C109.028 7.05467 109.309 7.36233 109.5 7.761V7.059C109.5 6.903 109.543 6.77733 109.63 6.682C109.725 6.58667 109.855 6.539 110.02 6.539ZM107.55 11.934C108.157 11.934 108.633 11.7347 108.98 11.336C109.327 10.9287 109.5 10.3697 109.5 9.659C109.5 8.957 109.327 8.40667 108.98 8.008C108.642 7.60067 108.165 7.397 107.55 7.397C106.935 7.397 106.449 7.60067 106.094 8.008C105.747 8.40667 105.574 8.957 105.574 9.659C105.574 10.3697 105.747 10.9287 106.094 11.336C106.449 11.7347 106.935 11.934 107.55 11.934Z" fill="white"/>
<path d="M26.795 20.769C26.809 20.797 26.816 20.825 26.816 20.853C26.816 20.9043 26.795 20.9487 26.753 20.986C26.711 21.0187 26.662 21.035 26.606 21.035C26.5687 21.035 26.5313 21.0233 26.494 21C26.4613 20.9767 26.4357 20.944 26.417 20.902L25.885 19.684H23.169L22.63 20.902C22.588 20.9907 22.5227 21.035 22.434 21.035C22.378 21.035 22.329 21.0187 22.287 20.986C22.2497 20.9487 22.231 20.902 22.231 20.846C22.231 20.8133 22.2357 20.7877 22.245 20.769L24.289 16.177C24.331 16.0743 24.408 16.023 24.52 16.023C24.5713 16.023 24.618 16.037 24.66 16.065C24.7067 16.093 24.7393 16.1303 24.758 16.177L26.795 20.769ZM23.33 19.306H25.717L24.527 16.597L23.33 19.306ZM28.2421 21.035C28.1768 21.035 28.1231 21.0163 28.0811 20.979C28.0438 20.937 28.0251 20.881 28.0251 20.811V16.282C28.0251 16.2213 28.0461 16.17 28.0881 16.128C28.1348 16.086 28.1908 16.065 28.2561 16.065H29.8941C30.4074 16.065 30.8041 16.1887 31.0841 16.436C31.3688 16.6833 31.5111 17.0333 31.5111 17.486C31.5111 17.9433 31.3688 18.298 31.0841 18.55C30.7994 18.7973 30.4028 18.921 29.8941 18.921H28.4591V20.811C28.4591 20.881 28.4381 20.937 28.3961 20.979C28.3588 21.0163 28.3074 21.035 28.2421 21.035ZM29.8661 18.55C30.6734 18.55 31.0771 18.1953 31.0771 17.486C31.0771 16.786 30.6734 16.436 29.8661 16.436H28.4591V18.55H29.8661ZM33.056 21.035C32.9906 21.035 32.937 21.0163 32.895 20.979C32.8576 20.937 32.839 20.881 32.839 20.811V16.282C32.839 16.2213 32.86 16.17 32.902 16.128C32.9486 16.086 33.0046 16.065 33.07 16.065H34.708C35.2213 16.065 35.618 16.1887 35.898 16.436C36.1826 16.6833 36.325 17.0333 36.325 17.486C36.325 17.9433 36.1826 18.298 35.898 18.55C35.6133 18.7973 35.2166 18.921 34.708 18.921H33.273V20.811C33.273 20.881 33.252 20.937 33.21 20.979C33.1726 21.0163 33.1213 21.035 33.056 21.035ZM34.68 18.55C35.4873 18.55 35.891 18.1953 35.891 17.486C35.891 16.786 35.4873 16.436 34.68 16.436H33.273V18.55H34.68ZM37.8768 21C37.8162 21 37.7625 20.9813 37.7158 20.944C37.6738 20.9067 37.6528 20.86 37.6528 20.804V16.254C37.6528 16.1887 37.6715 16.135 37.7088 16.093C37.7508 16.051 37.8045 16.03 37.8698 16.03C37.9398 16.03 37.9935 16.051 38.0308 16.093C38.0682 16.1303 38.0868 16.184 38.0868 16.254V20.622H40.4808C40.5415 20.622 40.5882 20.6383 40.6208 20.671C40.6582 20.7037 40.6768 20.7503 40.6768 20.811C40.6768 20.8717 40.6582 20.9183 40.6208 20.951C40.5882 20.9837 40.5415 21 40.4808 21H37.8768ZM41.9522 21.035C41.8869 21.035 41.8332 21.014 41.7912 20.972C41.7539 20.93 41.7352 20.8763 41.7352 20.811V16.254C41.7352 16.1887 41.7539 16.135 41.7912 16.093C41.8332 16.051 41.8869 16.03 41.9522 16.03C42.0176 16.03 42.0689 16.051 42.1062 16.093C42.1482 16.135 42.1692 16.1887 42.1692 16.254V20.811C42.1692 20.8763 42.1482 20.93 42.1062 20.972C42.0689 21.014 42.0176 21.035 41.9522 21.035ZM45.8452 21.056C45.3879 21.056 44.9889 20.9557 44.6482 20.755C44.3122 20.5497 44.0532 20.258 43.8712 19.88C43.6939 19.4973 43.6052 19.047 43.6052 18.529C43.6052 18.011 43.6939 17.563 43.8712 17.185C44.0532 16.807 44.3122 16.5177 44.6482 16.317C44.9889 16.1117 45.3879 16.009 45.8452 16.009C46.1579 16.009 46.4542 16.0627 46.7342 16.17C47.0189 16.2727 47.2592 16.422 47.4552 16.618C47.5206 16.6787 47.5532 16.7463 47.5532 16.821C47.5532 16.8723 47.5369 16.9167 47.5042 16.954C47.4762 16.9913 47.4436 17.01 47.4062 17.01C47.3596 17.01 47.3059 16.9867 47.2452 16.94C46.9932 16.7347 46.7646 16.5923 46.5592 16.513C46.3539 16.4337 46.1136 16.394 45.8382 16.394C45.2736 16.394 44.8349 16.5807 44.5222 16.954C44.2142 17.3273 44.0602 17.8523 44.0602 18.529C44.0602 19.2103 44.2142 19.7377 44.5222 20.111C44.8349 20.4843 45.2736 20.671 45.8382 20.671C46.1136 20.671 46.3539 20.6313 46.5592 20.552C46.7646 20.4727 46.9932 20.3303 47.2452 20.125C47.3152 20.0783 47.3689 20.055 47.4062 20.055C47.4436 20.055 47.4762 20.0737 47.5042 20.111C47.5369 20.1483 47.5532 20.1927 47.5532 20.244C47.5532 20.3187 47.5206 20.3863 47.4552 20.447C47.2592 20.643 47.0189 20.7947 46.7342 20.902C46.4542 21.0047 46.1579 21.056 45.8452 21.056ZM52.9096 20.769C52.9236 20.797 52.9306 20.825 52.9306 20.853C52.9306 20.9043 52.9096 20.9487 52.8676 20.986C52.8256 21.0187 52.7766 21.035 52.7206 21.035C52.6833 21.035 52.646 21.0233 52.6086 21C52.576 20.9767 52.5503 20.944 52.5316 20.902L51.9996 19.684H49.2836L48.7446 20.902C48.7026 20.9907 48.6373 21.035 48.5486 21.035C48.4926 21.035 48.4436 21.0187 48.4016 20.986C48.3643 20.9487 48.3456 20.902 48.3456 20.846C48.3456 20.8133 48.3503 20.7877 48.3596 20.769L50.4036 16.177C50.4456 16.0743 50.5226 16.023 50.6346 16.023C50.686 16.023 50.7326 16.037 50.7746 16.065C50.8213 16.093 50.854 16.1303 50.8726 16.177L52.9096 20.769ZM49.4446 19.306H51.8316L50.6416 16.597L49.4446 19.306ZM55.0004 21.035C54.935 21.035 54.8837 21.014 54.8464 20.972C54.809 20.93 54.7904 20.8763 54.7904 20.811V16.443H53.1734C53.1127 16.443 53.0637 16.4267 53.0264 16.394C52.9937 16.3613 52.9774 16.3147 52.9774 16.254C52.9774 16.1933 52.9937 16.1467 53.0264 16.114C53.0637 16.0813 53.1127 16.065 53.1734 16.065H56.8274C56.8834 16.065 56.93 16.0837 56.9674 16.121C57.0047 16.1537 57.0234 16.198 57.0234 16.254C57.0234 16.31 57.0047 16.3567 56.9674 16.394C56.93 16.4267 56.8834 16.443 56.8274 16.443H55.2174V20.811C55.2174 20.8763 55.1964 20.93 55.1544 20.972C55.117 21.014 55.0657 21.035 55.0004 21.035ZM58.2683 21.035C58.2029 21.035 58.1493 21.014 58.1073 20.972C58.0699 20.93 58.0513 20.8763 58.0513 20.811V16.254C58.0513 16.1887 58.0699 16.135 58.1073 16.093C58.1493 16.051 58.2029 16.03 58.2683 16.03C58.3336 16.03 58.3849 16.051 58.4223 16.093C58.4643 16.135 58.4853 16.1887 58.4853 16.254V20.811C58.4853 20.8763 58.4643 20.93 58.4223 20.972C58.3849 21.014 58.3336 21.035 58.2683 21.035ZM62.1192 21.056C61.6712 21.056 61.2816 20.9557 60.9502 20.755C60.6189 20.5497 60.3646 20.258 60.1872 19.88C60.0099 19.4973 59.9212 19.0493 59.9212 18.536C59.9212 18.018 60.0099 17.57 60.1872 17.192C60.3646 16.8093 60.6166 16.5177 60.9432 16.317C61.2746 16.1117 61.6666 16.009 62.1192 16.009C62.5719 16.009 62.9639 16.1117 63.2952 16.317C63.6266 16.5177 63.8809 16.807 64.0582 17.185C64.2356 17.563 64.3242 18.011 64.3242 18.529C64.3242 19.047 64.2356 19.4973 64.0582 19.88C63.8809 20.258 63.6266 20.5497 63.2952 20.755C62.9639 20.9557 62.5719 21.056 62.1192 21.056ZM62.1192 20.671C62.6746 20.671 63.1062 20.4843 63.4142 20.111C63.7222 19.7377 63.8762 19.2103 63.8762 18.529C63.8762 17.8477 63.7222 17.3227 63.4142 16.954C63.1109 16.5807 62.6792 16.394 62.1192 16.394C61.5639 16.394 61.1322 16.5807 60.8242 16.954C60.5209 17.3273 60.3692 17.8523 60.3692 18.529C60.3692 19.2057 60.5209 19.733 60.8242 20.111C61.1322 20.4843 61.5639 20.671 62.1192 20.671ZM69.4261 16.03C69.4914 16.03 69.5404 16.051 69.5731 16.093C69.6104 16.1303 69.6291 16.184 69.6291 16.254V20.811C69.6291 20.8763 69.6104 20.93 69.5731 20.972C69.5358 21.014 69.4844 21.035 69.4191 21.035C69.3491 21.035 69.2861 21 69.2301 20.93L66.1641 16.793V20.811C66.1641 20.8763 66.1454 20.93 66.1081 20.972C66.0708 21.014 66.0218 21.035 65.9611 21.035C65.8911 21.035 65.8398 21.0163 65.8071 20.979C65.7744 20.937 65.7581 20.881 65.7581 20.811V16.254C65.7581 16.1887 65.7768 16.135 65.8141 16.093C65.8561 16.051 65.9121 16.03 65.9821 16.03C66.0568 16.03 66.1174 16.065 66.1641 16.135L69.2231 20.265V16.254C69.2231 16.1887 69.2418 16.135 69.2791 16.093C69.3164 16.051 69.3654 16.03 69.4261 16.03Z" fill="white"/>
<g clip-path="url(#clip0)">
<path d="M17.5006 11H16.5787C16.3037 10.375 15.9037 9.82188 15.41 9.35938L16.0006 7H15.0006C14.0819 7 13.2694 7.42188 12.7194 8.07188C12.4819 8.0375 12.2475 8 12.0006 8H8.00061C5.58186 8 3.56624 9.71875 3.10061 12H1.75061C1.28811 12 0.922483 11.5781 1.01623 11.1C1.08498 10.7437 1.41936 10.5 1.78186 10.5H1.81311C1.91623 10.5 2.00061 10.4156 2.00061 10.3125V9.6875C2.00061 9.58438 1.91623 9.5 1.81311 9.5C0.922483 9.5 0.128733 10.1375 0.0162328 11.0188C-0.121267 12.0875 0.709983 13 1.75061 13H3.00061C3.00061 14.6313 3.79436 16.0656 5.00061 16.9781V19.5C5.00061 19.775 5.22561 20 5.50061 20H7.50061C7.77561 20 8.00061 19.775 8.00061 19.5V18H12.0006V19.5C12.0006 19.775 12.2256 20 12.5006 20H14.5006C14.7756 20 15.0006 19.775 15.0006 19.5V16.9781C15.3694 16.7 15.6975 16.3719 15.9787 16H17.5006C17.7756 16 18.0006 15.775 18.0006 15.5V11.5C18.0006 11.225 17.7756 11 17.5006 11ZM13.5006 13C13.2256 13 13.0006 12.775 13.0006 12.5C13.0006 12.225 13.2256 12 13.5006 12C13.7756 12 14.0006 12.225 14.0006 12.5C14.0006 12.775 13.7756 13 13.5006 13ZM8.00061 7H12.0006C12.1694 7 12.335 7.0125 12.4975 7.025C12.4975 7.01563 12.5006 7.00938 12.5006 7C12.5006 5.34375 11.1569 4 9.50061 4C7.84436 4 6.50061 5.34375 6.50061 7C6.50061 7.06562 6.51624 7.12812 6.51936 7.19375C6.99436 7.07187 7.48811 7 8.00061 7Z" fill="white"/>
</g>
<defs>
<clipPath id="clip0">
<rect width="18" height="16" fill="white" transform="translate(0 4)"/>
</clipPath>
</defs>
</svg>
